<?xml version="1.0" encoding="UTF-8" standalone="no"?>
<!DOCTYPE svg PUBLIC "-//W3C//DTD SVG 1.1//EN" "http://www.w3.org/Graphics/SVG/1.1/DTD/svg11.dtd">
<svg width="100%" height="100%" viewBox="0 0 2500 2500" version="1.1" xmlns="http://www.w3.org/2000/svg" xmlns:xlink="http://www.w3.org/1999/xlink" xml:space="preserve" xmlns:serif="http://www.serif.com/" style="fill-rule:evenodd;clip-rule:evenodd;stroke-linejoin:round;stroke-miterlimit:2;">
    <g>
        <rect x="110.295" y="980.683" width="2279.41" height="538.634"/>
        <path d="M1905.52,1110.36L470.867,1109.29L470.867,1154.84L1904.25,1154.84C1910.3,1154.84 1915.65,1152.7 1919.9,1148.62C1924.12,1144.56 1926.55,1138.99 1926.66,1133.14C1926.84,1127.36 1924.73,1121.73 1920.78,1117.49C1916.89,1113.12 1911.37,1110.53 1905.52,1110.36ZM251.717,1066.24L2146.37,1066.24C2164.33,1066.24 2180.68,1073.18 2193.3,1085.98C2205.85,1098.37 2212.85,1115.32 2212.71,1132.95C2212.88,1150.63 2205.88,1167.65 2193.3,1180.09C2181.01,1192.79 2164.04,1199.92 2146.37,1199.83L470.867,1199.83L470.867,1447.8L251.717,1447.8L251.717,1066.24ZM1419.89,1243.96L1419.89,1294.12L1283.1,1294.12L1283.1,1319.38L1420.42,1319.38L1420.42,1369.37L1282.39,1369.37L1282.39,1395.16L1417.93,1395.16L1417.93,1448.15L1145.93,1448.15L1145.93,1243.96L1419.89,1243.96ZM1492.64,1244.31L1625.32,1244.31L1625.32,1393.92L1740.43,1393.92L1740.43,1448.16L1492.64,1448.16L1492.64,1244.31ZM543.446,1244.31L669.201,1244.31L669.201,1448.33L543.446,1448.33L543.446,1244.31ZM1779.22,1244.31L1908.71,1244.31L1908.71,1392.47L2023.97,1392.47L2023.97,1448.15L1779.22,1448.15L1779.22,1244.31ZM879.999,1292.52L879.999,1336.98L930.516,1336.44C936.391,1336.44 941.722,1334.13 945.82,1329.88C949.906,1325.6 952.046,1320.08 952.046,1314.23C952.046,1308.35 949.737,1303.01 945.47,1298.92C941.423,1294.74 935.816,1292.42 929.997,1292.52L879.999,1292.52ZM743.738,1244.12L1011.46,1244.12C1044.01,1245.73 1072.12,1268.86 1079.59,1300.7C1087.17,1332.48 1072.86,1365.69 1044.55,1381.99L1086,1447.8L943.511,1447.8L904.019,1387.69L879.999,1387.69L879.999,1448.15L743.738,1448.15L743.738,1244.12ZM2052.09,1243.78L2184.07,1243.78L2184.07,1448.33L2052.09,1448.33L2052.09,1243.78Z" style="fill:white;"/>
    </g>
</svg>
