<?xml version="1.0" encoding="UTF-8" standalone="no"?>
<!DOCTYPE svg PUBLIC "-//W3C//DTD SVG 1.1//EN" "http://www.w3.org/Graphics/SVG/1.1/DTD/svg11.dtd">
<svg width="100%" height="100%" viewBox="0 0 2500 2500" version="1.1" xmlns="http://www.w3.org/2000/svg" xmlns:xlink="http://www.w3.org/1999/xlink" xml:space="preserve" xmlns:serif="http://www.serif.com/" style="fill-rule:evenodd;clip-rule:evenodd;stroke-linejoin:round;stroke-miterlimit:2;">
    <g>
        <path d="M1056.87,1306.98C1056.48,1332.79 1063.22,1355.03 1091.43,1355.03C1112.48,1355.03 1125.58,1345.08 1128.37,1326.43L1198.28,1326.43C1195.89,1352.24 1179.6,1370.92 1160.54,1382.05C1143.05,1393.15 1120.81,1397.53 1097.37,1397.53C1017.53,1397.53 985.754,1363.36 985.754,1285.11C985.754,1221.96 1033.03,1186.2 1093.01,1186.2C1174.06,1186.2 1199.87,1232.68 1199.87,1306.98L1056.87,1306.98ZM1128.37,1266.45C1128.37,1255.72 1125.18,1244.99 1119.23,1236.65C1113.27,1228.32 1104.53,1223.14 1093.01,1223.96C1066.8,1225.14 1060.45,1243.81 1058.45,1266.45L1128.37,1266.45ZM110.295,1391.57L110.295,1104.77L242.171,1104.77C312.481,1104.77 358.562,1127.41 358.562,1196.91C358.562,1266.43 312.481,1289.08 242.171,1289.08L189.735,1289.08L189.735,1391.55L110.295,1391.55L110.295,1391.57ZM230.654,1233.48C262.041,1232.28 275.154,1217.99 275.154,1196.93C275.154,1175.89 262.041,1161.57 230.654,1160.39L189.748,1160.39L189.748,1233.49L230.654,1233.49L230.654,1233.48ZM593.224,1291.87C593.224,1365.34 539.594,1397.52 477.222,1397.52C414.864,1397.52 361.234,1365.34 361.234,1291.87C361.234,1218.37 414.864,1186.2 477.222,1186.2C539.594,1186.2 593.224,1218.37 593.224,1291.87ZM477.222,1353.84C509.011,1353.84 515.756,1320.06 515.756,1291.88C515.756,1263.67 509.011,1229.91 477.222,1229.91C445.46,1229.91 438.702,1263.68 438.702,1291.88C438.702,1320.06 445.46,1353.84 477.222,1353.84ZM724.712,1253.72C724.712,1246.96 723.518,1241.03 719.952,1237.04C715.97,1232.68 709.628,1229.9 699.291,1229.9C688.176,1229.9 681.418,1236.24 681.418,1247.78C681.418,1262.46 712.001,1261.67 759.263,1276.38C783.101,1283.92 799.391,1298.62 799.391,1331.19C799.391,1384.03 749.73,1397.53 704.051,1397.53C655.194,1397.53 607.53,1387.6 607.932,1326.82L679.434,1326.82C678.241,1332.79 680.238,1339.53 684.596,1344.7C688.967,1349.85 695.322,1353.84 702.468,1353.84C717.163,1353.84 727.876,1348.27 727.876,1335.56C727.876,1300.21 609.903,1321.26 609.903,1248.96C609.903,1199.72 662.327,1186.2 702.053,1186.2C749.328,1186.2 793.023,1198.51 796.201,1253.72L724.712,1253.72ZM849.105,1192.15L849.105,1161.96L924.563,1133.36L924.563,1192.15L968.271,1192.15L968.271,1239.83L924.563,1239.83L924.563,1318.88C924.563,1324.04 921.411,1349.87 938.881,1349.87C948.803,1349.87 959.14,1349.87 967.869,1348.67L967.869,1393.55C950.788,1396.74 938.479,1397.54 927.338,1397.54C876.108,1397.54 845.123,1390.38 849.092,1329.22L849.092,1239.83L810.169,1239.83L810.169,1192.15L849.105,1192.15ZM1232.45,1190.14L1270.3,1190.14L1270.3,1390.18L1232.45,1390.18L1232.45,1190.14ZM1228.87,1102.48L1273.9,1102.48L1273.9,1143.54L1228.87,1143.54L1228.87,1102.48ZM1331.02,1190.14L1331.02,1147.5L1368.87,1135.54L1368.87,1190.13L1415.09,1188.94L1415.09,1217.24L1368.87,1216.82L1368.87,1345.95C1368.87,1360.27 1380.04,1367.05 1393.59,1367.05C1399.57,1367.05 1407.52,1366.26 1413.52,1364.68L1413.52,1393.76C1404.76,1394.16 1396.38,1396.17 1387.61,1396.17C1378.44,1396.17 1371.29,1395.77 1362.1,1394.17C1356.14,1392.98 1346.16,1389.78 1339.78,1381.01C1333.02,1371.45 1331.01,1370.64 1331.01,1343.97L1331.01,1216.82L1296.73,1217.24L1296.73,1188.94L1331.02,1190.14ZM1563.71,1266.67C1563.71,1231.99 1561.74,1211.66 1521.48,1211.66C1502.35,1211.66 1484.43,1222.83 1484.01,1243.55L1444.17,1243.55C1446.14,1199.72 1480.45,1184.18 1519.89,1184.18C1560.92,1184.18 1601.58,1196.53 1601.58,1252.32L1601.58,1347.96C1601.58,1356.71 1601.99,1373.46 1603.18,1390.19L1577.67,1390.19C1574.08,1390.19 1567.31,1392.17 1566.9,1387.4C1566.11,1378.25 1565.31,1369.48 1564.93,1360.3L1564.13,1360.3C1551.79,1385.4 1529.47,1396.19 1501.96,1396.19C1467.31,1396.19 1432.23,1378.25 1432.23,1339.19C1432.23,1283 1482.06,1266.67 1529.47,1266.67L1563.71,1266.67ZM1525.89,1292.96C1502.77,1294.16 1472.07,1302.52 1472.07,1331.61C1472.07,1356.3 1489.21,1368.66 1511.54,1368.66C1556.16,1368.66 1564.53,1330.01 1563.71,1292.94L1525.89,1292.94L1525.89,1292.96ZM1639.24,1102.48L1677.08,1102.48L1677.08,1390.19L1639.24,1390.19L1639.24,1102.48ZM1724.15,1190.14L1762.02,1190.14L1762.02,1390.18L1724.15,1390.18L1724.15,1190.14ZM1720.57,1102.48L1765.61,1102.48L1765.61,1143.54L1720.57,1143.54L1720.57,1102.48ZM1927.66,1266.67C1927.66,1231.99 1925.69,1211.66 1885.43,1211.66C1866.3,1211.66 1848.37,1222.83 1847.98,1243.55L1808.12,1243.55C1810.11,1199.72 1844.39,1184.18 1883.83,1184.18C1924.87,1184.18 1965.53,1196.53 1965.53,1252.32L1965.53,1347.96C1965.53,1356.71 1965.93,1373.46 1967.12,1390.19L1941.61,1390.19C1938.02,1390.19 1931.25,1392.17 1930.85,1387.4C1930.06,1378.25 1929.25,1369.48 1928.88,1360.3L1928.07,1360.3C1915.74,1385.4 1893.42,1396.19 1865.91,1396.19C1831.25,1396.19 1796.17,1378.25 1796.17,1339.19C1796.17,1283 1846,1266.67 1893.42,1266.67L1927.66,1266.67ZM1889.81,1292.96C1866.71,1294.16 1836.01,1302.52 1836.01,1331.61C1836.01,1356.3 1853.16,1368.66 1875.48,1368.66C1920.11,1368.66 1928.47,1330.01 1927.66,1292.94L1889.81,1292.94L1889.81,1292.96ZM2041.74,1219.65L2042.56,1219.65C2055.29,1194.54 2083.22,1184.18 2103.12,1184.18C2117.05,1184.18 2178.84,1187.76 2178.84,1251.92L2178.84,1390.19L2140.97,1390.19L2140.97,1264.28C2140.97,1231.21 2127.04,1213.26 2095.18,1213.26C2095.18,1213.26 2074.42,1212.06 2058.5,1228.02C2052.92,1233.59 2042.56,1242.36 2042.56,1281.4L2042.56,1390.19L2004.71,1390.19L2004.71,1190.14L2041.74,1190.14L2041.74,1219.65ZM2248.63,1297.34C2245.84,1332.41 2260.19,1368.67 2298.84,1368.67C2328.32,1368.67 2343.07,1357.12 2347.45,1328.01L2387.29,1328.01C2381.34,1373.45 2346.26,1396.18 2298.42,1396.18C2234.29,1396.18 2208.78,1350.75 2208.78,1291.76C2208.78,1233.18 2238.26,1184.16 2301.61,1184.16C2361.39,1185.36 2389.69,1223.22 2389.69,1278.6L2389.69,1297.33L2248.63,1297.33L2248.63,1297.34ZM2349.86,1271.05C2350.67,1237.56 2335.5,1211.66 2298.84,1211.66C2267.35,1211.66 2248.63,1238.37 2248.63,1271.05L2349.86,1271.05Z"/>
    </g>
</svg>
