<?xml version="1.0" encoding="UTF-8" standalone="no"?>
<!DOCTYPE svg PUBLIC "-//W3C//DTD SVG 1.1//EN" "http://www.w3.org/Graphics/SVG/1.1/DTD/svg11.dtd">
<svg width="100%" height="100%" viewBox="0 0 800 300" version="1.1" xmlns="http://www.w3.org/2000/svg" xmlns:xlink="http://www.w3.org/1999/xlink" xml:space="preserve" xmlns:serif="http://www.serif.com/" style="fill-rule:evenodd;clip-rule:evenodd;stroke-linejoin:round;stroke-miterlimit:2;">
    <g transform="matrix(0.749462,0,0,0.749462,4.39693,-31.7341)">
        <path d="M489.676,138.714C489.476,138.338 484.676,129.4 475.434,120.373C463.079,108.305 448.64,101.926 433.679,101.926C425.686,101.926 417.485,103.706 409.151,107.239C411.661,105.032 414.447,102.698 417.479,100.327C430.6,90.068 451.088,77.05 474.186,73.294C475.383,73.099 476.316,72.149 476.489,70.948C476.661,69.747 476.033,68.573 474.939,68.05C474.194,67.694 456.456,59.321 435.323,59.321C414.366,59.321 387.334,67.785 374.596,106.975C372.837,104.444 370.347,101.351 367.009,98.256C359.96,91.724 347.628,83.936 328.9,83.936C314.521,83.936 298.349,88.497 280.833,97.492C279.741,98.053 279.147,99.263 279.372,100.47C279.598,101.677 280.588,102.592 281.808,102.722C281.934,102.736 294.531,104.115 309.053,108.939C321.201,112.974 337.049,120.252 346.244,132.462C343.33,133.278 339.075,134.678 334.223,136.932C325.991,140.755 314.407,147.875 305.971,160.083C295.265,175.577 292.058,195.321 296.438,218.767C296.65,219.899 297.538,220.783 298.67,220.989C299.803,221.195 300.945,220.68 301.541,219.696C301.789,219.286 324.602,181.971 348.164,169.719C345.901,174.953 343.151,182.82 342.093,191.948C340.975,201.6 341.994,210.649 345.125,218.843C349.038,229.083 356.246,237.944 366.551,245.177C367.027,245.511 367.585,245.681 368.146,245.681C368.578,245.681 369.01,245.579 369.409,245.376C370.325,244.908 370.907,243.972 370.922,242.942C370.925,242.757 371.208,224.159 373.691,203.384C375.756,186.091 378.714,172.361 382.409,162.696C387.76,174.511 394.236,189.694 397.182,200.011C402.761,219.549 405.569,239.234 405.597,258.415C395.57,262.897 374.296,272.138 349.544,281.289C304.392,297.983 268.242,306.807 245.003,306.807C221.764,306.807 185.614,297.984 140.462,281.289C115.71,272.138 94.437,262.897 84.41,258.415C84.438,239.233 87.245,219.548 92.824,200.011C95.769,189.697 102.247,174.513 107.597,162.697C111.287,172.353 114.243,186.066 116.31,203.337C118.795,224.114 119.081,242.756 119.083,242.941C119.098,243.97 119.68,244.907 120.596,245.375C120.994,245.578 121.427,245.68 121.859,245.68C122.42,245.68 122.978,245.51 123.454,245.176C133.759,237.943 140.967,229.082 144.88,218.842C148.011,210.649 149.03,201.6 147.912,191.947C146.853,182.818 144.103,174.952 141.841,169.718C165.404,181.97 188.216,219.284 188.464,219.695C189.061,220.68 190.203,221.194 191.336,220.988C192.468,220.782 193.356,219.898 193.567,218.766C197.947,195.321 194.74,175.577 184.034,160.082C175.598,147.874 164.014,140.754 155.782,136.931C150.929,134.677 146.675,133.278 143.761,132.461C152.956,120.25 168.804,112.973 180.952,108.938C195.475,104.114 208.071,102.735 208.196,102.721C209.417,102.592 210.407,101.676 210.633,100.47C210.859,99.264 210.264,98.052 209.172,97.491C191.655,88.496 175.484,83.935 161.105,83.935C142.376,83.935 130.044,91.723 122.996,98.255C119.658,101.35 117.168,104.443 115.409,106.974C102.668,67.784 75.635,59.32 54.678,59.32C33.545,59.32 15.807,67.692 15.062,68.049C13.968,68.572 13.34,69.746 13.513,70.947C13.685,72.148 14.617,73.097 15.815,73.293C38.87,77.043 59.324,90.022 72.422,100.248C75.49,102.644 78.31,105.005 80.847,107.237C72.514,103.705 64.313,101.925 56.322,101.925C41.361,101.925 26.923,108.304 14.567,120.372C5.324,129.4 0.525,138.338 0.324,138.714C-0.185,139.673 -0.089,140.84 0.57,141.703C1.229,142.564 2.331,142.964 3.389,142.724C21.426,138.634 37.91,136.562 52.382,136.562C72.064,136.562 84.357,140.275 91.708,143.96C84.532,153.458 73.085,171.557 61.218,202.239C46.405,240.539 41.952,279.76 48.341,315.663C56.152,359.569 76.55,401.108 104.306,429.629C104.958,430.3 105.856,430.679 106.792,430.679L165.256,430.679C166.708,430.679 168.007,429.775 168.511,428.412C169.015,427.049 168.616,425.518 167.513,424.573C139.805,400.841 98.433,336.485 89.835,303.746C87.154,293.062 85.474,282.011 84.775,270.731C86.475,272.381 88.306,274.177 90.254,276.088C105.312,290.855 128.067,313.169 154.628,331.692C169.297,341.921 183.625,349.914 197.215,355.448C213.309,362.003 228.883,365.325 243.503,365.325C244.005,365.325 244.497,365.321 244.998,365.314C245.496,365.321 245.996,365.325 246.493,365.325C261.114,365.325 276.688,362.003 292.783,355.448C306.373,349.915 320.7,341.923 335.369,331.692C361.929,313.17 384.684,290.855 399.741,276.088C401.689,274.178 403.521,272.381 405.221,270.731C404.523,282.008 402.843,293.059 400.161,303.743C391.564,336.481 350.191,400.842 322.483,424.573C321.379,425.518 320.981,427.05 321.485,428.412C321.989,429.774 323.288,430.679 324.74,430.679L383.204,430.679C384.14,430.679 385.038,430.3 385.69,429.629C413.446,401.108 433.844,359.569 441.655,315.663C448.044,279.76 443.59,240.538 428.778,202.239C416.911,171.556 405.464,153.458 398.288,143.96C405.64,140.274 417.933,136.562 437.614,136.562C452.087,136.562 468.571,138.634 486.607,142.724C487.666,142.963 488.767,142.564 489.426,141.703C490.089,140.84 490.185,139.673 489.676,138.714Z" style="fill:url(#_Linear1);fill-rule:nonzero;"/>
    </g>
    <g transform="matrix(1.75077,0,0,1.75077,-79.4056,-82.5553)">
        <text x="245px" y="219.177px" style="font-family:'TSBlock-Bold', 'TS Block Bold';font-size:96px;fill:url(#_Linear2);">Lidi</text>
    </g>
    <defs>
        <linearGradient id="_Linear1" x1="0" y1="0" x2="1" y2="0" gradientUnits="userSpaceOnUse" gradientTransform="matrix(2e-06,0,0,2e-06,1256.48,-103.121)"><stop offset="0" style="stop-color:white;stop-opacity:1"/><stop offset="1" style="stop-color:rgb(179,179,179);stop-opacity:1"/></linearGradient>
        <linearGradient id="_Linear2" x1="0" y1="0" x2="1" y2="0" gradientUnits="userSpaceOnUse" gradientTransform="matrix(2e-06,0,0,2e-06,585.733,-15.1157)"><stop offset="0" style="stop-color:white;stop-opacity:1"/><stop offset="1" style="stop-color:rgb(179,179,179);stop-opacity:1"/></linearGradient>
    </defs>
</svg>
